<svg width="273" height="189" xmlns="http://www.w3.org/2000/svg"><defs><linearGradient x1="50%" y1="0%" x2="50%" y2="100%" id="a"><stop stop-color="#F3F5F7" offset="0%"/><stop stop-color="#E5E8EA" offset="86%"/><stop stop-color="#E2E6E8" offset="100%"/></linearGradient><linearGradient x1="23.548%" y1="39.931%" x2="76.452%" y2="60.069%" id="b"><stop stop-color="#CECECE" offset="0%"/><stop stop-color="#D8DADB" offset="25%"/><stop stop-color="#E0E3E5" offset="57%"/><stop stop-color="#E2E6E8" offset="100%"/></linearGradient><linearGradient x1="23.548%" y1="39.931%" x2="76.452%" y2="60.028%" id="c"><stop stop-color="#CECECE" offset="0%"/><stop stop-color="#D8DADB" offset="25%"/><stop stop-color="#E0E3E5" offset="57%"/><stop stop-color="#E2E6E8" offset="100%"/></linearGradient><linearGradient x1="50.171%" y1="0%" x2="50.171%" y2="99.895%" id="d"><stop stop-color="#CECECE" offset="0%"/><stop stop-color="#D7D9DA" offset="24%"/><stop stop-color="#DFE3E4" offset="60%"/><stop stop-color="#E2E6E8" offset="100%"/></linearGradient><linearGradient x1="50%" y1="0%" x2="50%" y2="100.057%" id="e"><stop stop-color="#F3F5F7" offset="0%"/><stop stop-color="#F1F3F5" offset="64%"/><stop stop-color="#EAEDEF" offset="87%"/><stop stop-color="#E2E6E8" offset="100%"/></linearGradient><linearGradient x1="50.06%" y1="0%" x2="50.06%" y2="100%" id="f"><stop stop-color="#F3F5F7" offset="0%"/><stop stop-color="#EEF1F3" offset="49%"/><stop stop-color="#E2E6E8" offset="100%"/></linearGradient><linearGradient x1="50.047%" y1="0%" x2="50.047%" y2="99.908%" id="g"><stop stop-color="#F3F5F7" offset="0%"/><stop stop-color="#E2E6E8" offset="100%"/></linearGradient><linearGradient x1="0%" y1="50%" x2="100%" y2="50%" id="h"><stop stop-color="#CECECE" offset="0%"/><stop stop-color="#D7D9DA" offset="24%"/><stop stop-color="#DFE3E4" offset="60%"/><stop stop-color="#E2E6E8" offset="100%"/></linearGradient><linearGradient x1="50.026%" y1="0%" x2="50.026%" y2="100%" id="i"><stop stop-color="#F3F5F7" offset="0%"/><stop stop-color="#F1F3F5" offset="45%"/><stop stop-color="#E9EDEF" offset="65%"/><stop stop-color="#E2E6E8" offset="76%"/></linearGradient><linearGradient x1="50%" y1="0%" x2="50%" y2="100%" id="j"><stop stop-color="#F3F5F7" offset="0%"/><stop stop-color="#E2E6E8" offset="100%"/></linearGradient><linearGradient x1="0%" y1="50%" x2="100%" y2="50%" id="k"><stop stop-color="#CECECE" offset="0%"/><stop stop-color="#D7D9DA" offset="24%"/><stop stop-color="#DFE3E4" offset="60%"/><stop stop-color="#E2E6E8" offset="100%"/></linearGradient><linearGradient x1="50.185%" y1="0%" x2="50.185%" y2="99.887%" id="l"><stop stop-color="#CECECE" offset="0%"/><stop stop-color="#D7D9DA" offset="24%"/><stop stop-color="#DFE3E4" offset="60%"/><stop stop-color="#E2E6E8" offset="100%"/></linearGradient><linearGradient x1="49.935%" y1=".415%" x2="49.935%" y2="99.724%" id="m"><stop stop-color="#F3F5F7" offset="0%"/><stop stop-color="#F1F3F5" offset="64%"/><stop stop-color="#EAEDEF" offset="87%"/><stop stop-color="#E2E6E8" offset="100%"/></linearGradient><linearGradient x1="49.934%" y1=".277%" x2="49.934%" y2="99.723%" id="n"><stop stop-color="#F3F5F7" offset="0%"/><stop stop-color="#F1F3F5" offset="64%"/><stop stop-color="#EAEDEF" offset="87%"/><stop stop-color="#E2E6E8" offset="100%"/></linearGradient><linearGradient x1="50%" y1=".288%" x2="50%" y2="99.712%" id="o"><stop stop-color="#F3F5F7" offset="0%"/><stop stop-color="#F1F3F5" offset="64%"/><stop stop-color="#EAEDEF" offset="87%"/><stop stop-color="#E2E6E8" offset="100%"/></linearGradient><linearGradient x1="49.815%" y1="0%" x2="49.815%" y2="99.887%" id="p"><stop stop-color="#CECECE" offset="0%"/><stop stop-color="#D7D9DA" offset="24%"/><stop stop-color="#DFE3E4" offset="60%"/><stop stop-color="#E2E6E8" offset="100%"/></linearGradient><linearGradient x1="49.983%" y1="0%" x2="49.983%" y2="99.985%" id="q"><stop stop-color="#F3F5F7" offset="0%"/><stop stop-color="#E5E8EA" offset="86%"/><stop stop-color="#E2E6E8" offset="100%"/></linearGradient><linearGradient x1="76.369%" y1="39.945%" x2="23.631%" y2="60.055%" id="r"><stop stop-color="#CECECE" offset="0%"/><stop stop-color="#D8DADB" offset="25%"/><stop stop-color="#E0E3E5" offset="57%"/><stop stop-color="#E2E6E8" offset="100%"/></linearGradient><linearGradient x1="76.369%" y1="39.953%" x2="23.631%" y2="60.047%" id="s"><stop stop-color="#CECECE" offset="0%"/><stop stop-color="#D8DADB" offset="25%"/><stop stop-color="#E0E3E5" offset="57%"/><stop stop-color="#E2E6E8" offset="100%"/></linearGradient><linearGradient x1="76.369%" y1="39.953%" x2="23.631%" y2="60.006%" id="t"><stop stop-color="#CECECE" offset="0%"/><stop stop-color="#D8DADB" offset="25%"/><stop stop-color="#E0E3E5" offset="57%"/><stop stop-color="#E2E6E8" offset="100%"/></linearGradient><linearGradient x1="76.369%" y1="39.994%" x2="23.631%" y2="60.047%" id="u"><stop stop-color="#CECECE" offset="0%"/><stop stop-color="#D8DADB" offset="25%"/><stop stop-color="#E0E3E5" offset="57%"/><stop stop-color="#E2E6E8" offset="100%"/></linearGradient><linearGradient x1="35.801%" y1="46.206%" x2="64.199%" y2="53.794%" id="v"><stop stop-color="#CECECE" offset="0%"/><stop stop-color="#D7D9DA" offset="24%"/><stop stop-color="#DFE3E4" offset="60%"/><stop stop-color="#E2E6E8" offset="100%"/></linearGradient><linearGradient x1="50%" y1="0%" x2="50%" y2="99.982%" id="w"><stop stop-color="#F3F5F7" offset="0%"/><stop stop-color="#F0F2F4" offset="50%"/><stop stop-color="#E6E9EB" offset="90%"/><stop stop-color="#E2E6E8" offset="100%"/></linearGradient></defs><g fill="none" fill-rule="evenodd"><path fill="#EAEEEF" fill-rule="nonzero" d="M.97 107.57h269.45v3.51H.97z"/><path fill="url(#a)" fill-rule="nonzero" d="M76.8 108.32H47.42V66.84L76.8 60.4z"/><path fill="url(#b)" d="M59.16 84.48h-7.79l1.51-3.54h7.79zm11.77 0h-7.79l1.5-3.54h7.8z"/><path fill="url(#c)" d="M59.16 77.61h-7.79l1.51-3.54h7.79zm11.77 0h-7.79l1.5-3.54h7.8z"/><path fill="url(#d)" fill-rule="nonzero" d="M35.87 107.78h-2.93l.34-9.53h2.25z"/><ellipse fill="url(#e)" fill-rule="nonzero" cx="34.41" cy="89.76" rx="8.75" ry="8.72"/><path d="M31.82 107.77a6.71 6.71 0 00.07-.91 6.39 6.39 0 10-12.78 0c.003.305.026.609.07.91h12.64z" fill="#F3F5F7" fill-rule="nonzero"/><path d="M225.15 27.63a6 6 0 00-1.94-1.36 13.26 13.26 0 00-5.53-1h-18.04v.06l-2.64-2.7h-2a46 46 0 001.84 4.8l-2.76 1.77 1.23.24 2.44-.92c.13.08.25.17.38.24a5.2 5.2 0 002.66.71h2.27l-4.3 2.89 1.84.35 14.95-3.24h8.66a1.13 1.13 0 00.94-1.84z" fill="url(#f)" fill-rule="nonzero"/><circle fill="#F7F8F9" fill-rule="nonzero" cx="202.74" cy="27.28" r="1"/><circle fill="#F7F8F9" fill-rule="nonzero" cx="205.16" cy="27.28" r="1"/><circle fill="#F7F8F9" fill-rule="nonzero" cx="207.58" cy="27.28" r="1"/><circle fill="#F7F8F9" fill-rule="nonzero" cx="210" cy="27.28" r="1"/><circle fill="#F7F8F9" fill-rule="nonzero" cx="212.42" cy="27.28" r="1"/><circle fill="#F7F8F9" fill-rule="nonzero" cx="214.84" cy="27.28" r="1"/><path d="M225.15 27.63a6 6 0 00-1.94-1.36 7.17 7.17 0 00-1.64-.56v1.49a.67.67 0 00.67.67h3.05a.74.74 0 00-.14-.24z" fill="#F7F8F9" fill-rule="nonzero"/><path fill="#F3F5F7" fill-rule="nonzero" d="M114.81 17.98h6.22v15.77h-6.22z"/><path fill="url(#g)" fill-rule="nonzero" d="M112.57 32.72h10.69v10.9h-10.69z"/><ellipse fill="url(#h)" fill-rule="nonzero" cx="117.92" cy="38.01" rx="2.18" ry="2.17"/><circle fill="#F7F8F9" fill-rule="nonzero" cx="220.35" cy="35.35" r="2.42"/><circle fill="#F7F8F9" fill-rule="nonzero" cx="234.98" cy="35.35" r="2.42"/><ellipse fill="#F7F8F9" fill-rule="nonzero" cx="224.84" cy="35.35" rx="3.02" ry="3.01"/><ellipse fill="#F7F8F9" fill-rule="nonzero" cx="230.23" cy="35.35" rx="3.02" ry="3.01"/><path fill="url(#i)" fill-rule="nonzero" d="M108.43 43.34h18.97v64.43h-18.97z"/><path fill="#F3F5F7" fill-rule="nonzero" d="M148.44 24.47h-3.38l1.07-22.08h1.39z"/><circle fill="#F3F5F7" fill-rule="nonzero" cx="146.75" cy="2.41" r="2.09"/><path fill="#F3F5F7" fill-rule="nonzero" d="M141.84 20.23h9.82v21.79h-9.82z"/><path fill="url(#j)" fill-rule="nonzero" d="M137.79 31.3h17.92v21.79h-17.92z"/><ellipse fill="url(#k)" fill-rule="nonzero" cx="146.75" cy="40.8" rx="3.65" ry="3.64"/><path fill="url(#l)" fill-rule="nonzero" d="M98.68 107.78h-2.71l.32-8.82h2.08z"/><path d="M98.56 92.08a3.82 3.82 0 10-2.43 0 3.81 3.81 0 102.43 0z" fill="url(#m)" fill-rule="nonzero"/><path fill="url(#l)" fill-rule="nonzero" d="M88.4 107.78h-2.71l.32-8.82h2.08z"/><path d="M88.28 92.08a3.81 3.81 0 10-2.43 0 3.81 3.81 0 102.43 0z" fill="url(#n)" fill-rule="nonzero"/><path fill="url(#l)" fill-rule="nonzero" d="M233.26 107.78h-2.71l.32-8.82h2.07z"/><path d="M233.13 92.08a3.81 3.81 0 10-2.42 0 3.81 3.81 0 102.42 0z" fill="url(#o)" fill-rule="nonzero"/><path fill="url(#p)" fill-rule="nonzero" d="M182.59 107.78h2.71l-.31-8.82h-2.08z"/><path d="M182.72 92.08a3.81 3.81 0 112.42 0 3.81 3.81 0 11-2.42 0z" fill="url(#o)" fill-rule="nonzero"/><ellipse fill="url(#k)" fill-rule="nonzero" cx="117.92" cy="50.86" rx="3.65" ry="3.64"/><path fill="url(#q)" fill-rule="nonzero" d="M193.24 107.78h29.37V49.02l-29.37-6.44z"/><path fill="url(#r)" d="M210.87 80.41h7.8l-1.51-3.55h-7.8zm-11.77 0h7.8l-1.51-3.55h-7.8z"/><path fill="url(#s)" d="M210.87 73.53h7.8l-1.51-3.54h-7.8zm-11.77 0h7.8l-1.51-3.54h-7.8z"/><path fill="url(#t)" d="M210.87 66.66h7.8l-1.51-3.54h-7.8zm-11.77 0h7.8l-1.51-3.54h-7.8z"/><path fill="url(#u)" d="M210.87 59.78h7.8l-1.51-3.54h-7.8zm-11.77 0h7.8l-1.51-3.54h-7.8z"/><path fill="url(#v)" d="M156.57 61.76h-21.45l1.5-3.54h21.46zm0 6.75h-21.45l1.5-3.54h21.46z"/><path d="M259.73 107.77a6.71 6.71 0 00.07-.91 6.39 6.39 0 10-12.78 0c0 .305.028.61.08.91h12.63z" fill="#F3F5F7" fill-rule="nonzero"/><path d="M250.91 107.77a5.4 5.4 0 00.08-.91 6.39 6.39 0 10-12.78 0c.003.305.026.609.07.91h12.63z" fill="#F3F5F7" fill-rule="nonzero"/><path d="M242.1 107.77a6.71 6.71 0 00.07-.91 6.39 6.39 0 00-12.78 0c.003.305.026.609.07.91h12.64zm-47.98 0a6.71 6.71 0 00.07-.91 6.39 6.39 0 10-12.78 0c.003.305.026.609.07.91h12.64z" fill="#F3F5F7" fill-rule="nonzero"/><path d="M185.3 107.77a6.71 6.71 0 00.07-.91 6.39 6.39 0 10-12.78 0c0 .305.028.61.08.91h12.63z" fill="#F3F5F7" fill-rule="nonzero"/><path d="M176.48 107.77a5.4 5.4 0 00.08-.91 6.39 6.39 0 10-12.78 0c.003.305.026.609.07.91h12.63z" fill="#F3F5F7" fill-rule="nonzero"/><path d="M167.37 107.77a5.4 5.4 0 00.08-.91 6.39 6.39 0 10-12.78 0c.003.305.026.609.07.91h12.63z" fill="#F3F5F7" fill-rule="nonzero"/><path d="M158.56 107.77a6.71 6.71 0 00.07-.91 6.39 6.39 0 10-12.78 0c.003.305.026.609.07.91h12.64z" fill="#F3F5F7" fill-rule="nonzero"/><path d="M149.74 107.77a6.71 6.71 0 00.07-.91 6.39 6.39 0 10-12.78 0c0 .305.028.61.08.91h12.63zm-30.55 0a6.71 6.71 0 00.07-.91 6.39 6.39 0 10-12.78 0c.003.305.026.609.07.91h12.64z" fill="#F3F5F7" fill-rule="nonzero"/><path d="M110.37 107.77a6.71 6.71 0 00.07-.91 6.39 6.39 0 00-12.77 0c-.002.305.021.61.07.91h12.63z" fill="#F3F5F7" fill-rule="nonzero"/><ellipse fill="#F7F8F9" fill-rule="nonzero" cx="164.69" cy="42.02" rx="1.81" ry="1.8"/><ellipse fill="#F7F8F9" fill-rule="nonzero" cx="175.6" cy="42.02" rx="1.81" ry="1.8"/><circle fill="#F7F8F9" fill-rule="nonzero" cx="168.04" cy="42.02" r="2.25"/><circle fill="#F7F8F9" fill-rule="nonzero" cx="172.06" cy="42.02" r="2.25"/><path fill="url(#w)" fill-rule="nonzero" d="M162.02 91.71V52.6h-30.74v39.11h-26.81v16.07h66.78V91.71z"/><g transform="translate(6 85)"><ellipse fill="#E2E6E8" fill-rule="nonzero" cx="109.88" cy="101.31" rx="21.52" ry="2.64"/><ellipse fill="#E2E6E8" fill-rule="nonzero" cx="164.07" cy="101.31" rx="21.52" ry="2.64"/><path d="M51.58 68.83s.39-.93.63-.81a1 1 0 01.52.26c.181.243.33.508.44.79l-1.59-.24z" fill="#E2E6E8" fill-rule="nonzero"/><path fill="#D3D5D8" fill-rule="nonzero" d="M53.17 69.07l.52-.42-.77-.63-.21.22zM29.9 65.5a2.1 2.1 0 01.27.75.11.11 0 010 .08.14.14 0 01-.07.08c-.31.16-.28.31-.62.38a6.12 6.12 0 00-.11-1c.13-.22.35-.19.53-.29z"/><path d="M28.76 65.69a.75.75 0 01.15-.2c.17-.11.37 0 .53.15.16.15 0 .12 0 .19.068.303.111.61.13.92v.06a1.06 1.06 0 01-.59-.06 4 4 0 01-.38-.21 1.28 1.28 0 01.16-.85z" fill="#E2E6E8" fill-rule="nonzero"/><path d="M29.23 65.32c.12 0 .22 0 .34.07.136.023.27.057.4.1-.093.103-.2.19-.32.26h-.12a.46.46 0 01-.16-.08l-.17-.11s-.27-.08-.27-.12c0-.04.23-.09.3-.12zM52 68.06a3 3 0 00.69.22l.19-.26-.64-.07-.24.11z" fill="#F2F5F7" fill-rule="nonzero"/><path d="M36.9 66.1a.59.59 0 01-.53.28h-2.3a.75.75 0 01.76-.72h.35" fill="#AA7959" fill-rule="nonzero"/><ellipse fill="#E2E6E8" fill-rule="nonzero" cx="12" cy="75.09" rx="9.51" ry="1.37"/><path d="M15.56 72.32l.85 2.75 1.14.34v-3.07c-.62.01-1.45-.01-1.99-.02z" fill="#845739" fill-rule="nonzero"/><path d="M15.56 72.32l.85 2.75 1.14.34v-3.07c-.62.01-1.45-.01-1.99-.02z" fill="#845739" fill-rule="nonzero"/><path d="M19.13 76.09l-2.6-.2c-.09 0-.16-.11-.16-.25v-.73c0-.13.06-.23.15-.23.155.01.308.03.46.06.822.12 1.6.446 2.26.95a.34.34 0 010 .26c.01.05-.05.15-.11.14z" fill="#5D7077" fill-rule="nonzero"/><path d="M17.4 56.06c.31 1.5.52 2.86.71 4.29.19 1.43.33 2.83.43 4.26a35.67 35.67 0 01-.37 8.67l-3-.29a32.13 32.13 0 00-1.31-7.61 62.92 62.92 0 00-1.21-3.75c-.44-1.24-.93-2.5-1.42-3.61l6.17-1.96z" fill="#77D9F7" fill-rule="nonzero"/><path d="M7.89 71.48L6.65 74l1 .51 2-2.09c-.56-.36-1.16-.66-1.76-.94z" fill="#845739" fill-rule="nonzero"/><circle fill="#845739" fill-rule="nonzero" cx=".92" cy="49.77" r="1"/><ellipse fill="#845739" fill-rule="nonzero" transform="rotate(-10.7 11.4 48.6)" cx="11.4" cy="48.6" rx="3.43" ry="3.57"/><path d="M8.14 76.22L6.3 74.38c-.07-.06 0-.19 0-.29l.47-.57c.08-.1.2-.14.26-.08.06.06.22.23.31.35A4.85 4.85 0 018.48 76a.31.31 0 01-.14.23.15.15 0 01-.2-.01z" fill="#5D7077" fill-rule="nonzero"/><path d="M7.89 71.48L6.65 74l1 .51 2-2.09c-.56-.36-1.16-.66-1.76-.94z" fill="#845739" fill-rule="nonzero"/><circle fill="#845739" fill-rule="nonzero" cx="21.45" cy="46.14" r="1"/><circle fill="#845739" fill-rule="nonzero" cx="8.41" cy="45.49" r="1"/><ellipse fill="#845739" fill-rule="nonzero" transform="rotate(-10.7 11.4 48.6)" cx="11.4" cy="48.6" rx="3.43" ry="3.57"/><path d="M8.14 76.22L6.3 74.38c-.07-.06 0-.19 0-.29l.47-.57c.08-.1.2-.14.26-.08.06.06.22.23.31.35A4.85 4.85 0 018.48 76a.31.31 0 01-.14.23.15.15 0 01-.2-.01z" fill="#5D7077" fill-rule="nonzero"/><path d="M14.39 54.15a11.72 11.72 0 003.87-2.76 8.51 8.51 0 001.35-2 8.08 8.08 0 00.73-2.26l1.47.17a9.91 9.91 0 01-.67 2.78 10.51 10.51 0 01-1.44 2.47 12.81 12.81 0 01-2 2 13.06 13.06 0 01-2.4 1.61l-.91-2.01zm-3.71 3.43a11.15 11.15 0 01-3.06-.64A12.29 12.29 0 014.9 55.6a12 12 0 01-2.29-1.92 14.16 14.16 0 01-1.8-2.36l1.24-.8a13.06 13.06 0 001.73 2A10.58 10.58 0 005.87 54a10.84 10.84 0 002.37 1 9.22 9.22 0 002.42.34l.02 2.24z" fill="#845739" fill-rule="nonzero"/><path d="M5.86 56.45L7.2 53.9a13.56 13.56 0 003.2.83c1 0-1.07 3.3-1.07 3.3s-2.94-1.31-3.47-1.58z" fill="#E2E6E8" fill-rule="nonzero"/><path d="M14.32 62.21c2.47-.31 3.61-2.39 3.3-4.86l-.12-.92c-.31-2.47-1.35-3.8-3.39-3.38l-1.53.12a3.44 3.44 0 00-3.43 4.2l.11.92a4.54 4.54 0 005.06 3.92z" fill="#77D9F7" fill-rule="nonzero"/><path d="M11.06 53.5l.39 2 4.27-.4-.52-2.1a9.26 9.26 0 00-4.14.5zm-1.28 1.07l.9 6-.9 1.71-.68-4.71s-.1-2.57.68-3z" fill="#E2E6E8" fill-rule="nonzero"/><path d="M11.91 56.66l4.25-.52.59 2.75a.73.73 0 01-.64.88l-3.14.31a.73.73 0 01-.8-.65l-.26-2.77z" fill="#00B9FF" fill-rule="nonzero"/><path d="M15.9 60.52a9.38 9.38 0 01-.11 1.13c0 .34-.11.66-.17 1A20 20 0 0113.73 68a18.91 18.91 0 01-2 3.14 18.7 18.7 0 01-2.54 2.64l-2.17-2a15.42 15.42 0 001.45-2.63 13.9 13.9 0 00.88-2.79c.21-.936.328-1.89.35-2.85V62.1c0-.22 0-.45-.07-.67a3.41 3.41 0 00-.1-.52l6.37-.39z" fill="#77D9F7" fill-rule="nonzero"/><path d="M9.73 47.87c-.58 0-1.11 1.32-.83 1.91.21.44.49 1 .22 1.38-.27.38-.74.38-1.17.36a2.92 2.92 0 01-1.6-.41 1.94 1.94 0 01-.7-1.63 4.38 4.38 0 01.52-1.75 13 13 0 011.66-2.6 5.47 5.47 0 011.87-1.58 4.54 4.54 0 013.36 0 11.2 11.2 0 013 1.76 3.57 3.57 0 011.11 1.18A2.44 2.44 0 0116.7 49c-.57.69-1.72.94-1.73.39a4.45 4.45 0 00-.86-2.4c-.23-.2-1.11.25-1.4.4a22.6 22.6 0 01-2.98.48z" fill="#2E4369" fill-rule="nonzero"/><path fill="#C58F62" fill-rule="nonzero" d="M114.16 101.13l-.36-5.17 3.4-.43.36 5.17zm-12.4-6.91l-1.19 6.22h-1.98v-6.02z"/><path d="M120.46 63.26c0 1.76-6 2.93-13.45 2.93-7.45 0-12.79.42-13.8-2.34-.08-.17.92-.59.92-.59 0-1.83 6.36-3.59 13-3.59a29.39 29.39 0 0113.33 3.59z" fill="#CC8719" fill-rule="nonzero"/><path fill="#2E4369" fill-rule="nonzero" d="M106.34 54.3l.18 42.35 16.15-1.34-7.81-41.87z"/><path d="M99.17 53.31c-1.57 7-3.08 14-4.54 21.08a965.17 965.17 0 00-2.11 10.62c-.67 3.57-1.33 7.13-1.89 10.83l16.17 1.06c-.09-3.41-.08-6.94-.05-10.46.03-3.52.1-7.09.19-10.64.17-7.11.42-14.25.72-21.36l-8.49-1.13z" fill="#37517E" fill-rule="nonzero"/><path d="M105.38 49.5c.61.269 1.239.496 1.88.68a31.5 31.5 0 005.13 1.08 28.64 28.64 0 006.86.06 21.19 21.19 0 006.48-1.78 19.52 19.52 0 005.32-3.59l-.85-1.29a17.14 17.14 0 01-5.43 1.17 16.23 16.23 0 01-5.22-.62 21.32 21.32 0 01-4.74-2c-.74-.43-1.46-.88-2.14-1.37-.34-.25-.66-.5-1-.76a3.82 3.82 0 01-.73-.7l-5.56 9.12z" fill="#CC8719" fill-rule="nonzero"/><circle fill="#C58F62" fill-rule="nonzero" cx="83.17" cy="34.62" r="1.59"/><circle fill="#C58F62" fill-rule="nonzero" cx="133.34" cy="44.33" r="1.59"/><path d="M112.22 38.87l-.48 1c2.09 3.42 6.09 17.92 8.93 23.65 0 0-5.19-1.84-12.79 1.3-4.1 1.7-10.87-.14-13.21-.76a8.53 8.53 0 00-1.34-.06c-.41-2.46 1.84-7.1 3.18-12 1.25-4.43 3.09-10.65 4.09-12.29 0 0 1.09-1.15 1.85-1.15l9.77.31z" fill="#F3B745" fill-rule="nonzero"/><path d="M114.06 98.54l.21 3.52h7.48s.56-2-1.9-2.46c-2.46-.46-2.46-1.46-2.46-1.46l-3.33.4zm-11.65 3.52s.31-3.74-2.48-3.92c-2.79-.18-2.73 3.92-2.73 3.92h5.21z" fill="#845739" fill-rule="nonzero"/><path d="M103 38.7l-.08.09c0 .05-.09.11-.16.17a5 5 0 01-.42.36 9.56 9.56 0 01-.94.7 14.19 14.19 0 01-2.1 1.15 9.89 9.89 0 01-4.67.84 5.36 5.36 0 01-1.25-.16 5.18 5.18 0 01-1.26-.32c-.41-.15-.85-.28-1.27-.46l-1.23-.68a5.84 5.84 0 01-1.2-.8l-1.19-.9c-.74-.67-1.44-1.41-2.19-2.15l-1.33.8c.46 1 .9 2 1.41 3l.92 1.45a8.37 8.37 0 001 1.42l1.18 1.37c.43.42.91.81 1.38 1.22a9.44 9.44 0 001.55 1.1 10.81 10.81 0 001.7.94 17.08 17.08 0 007.8 1.58 22.29 22.29 0 004-.47c.66-.13 1.32-.3 2-.5.32-.09.66-.23 1-.34.177-.06.35-.13.52-.21l.27-.11.37-.18L103 38.7z" fill="#FFB619" fill-rule="nonzero"/><path d="M111.51 36.06a10.13 10.13 0 00-.36-7.3 4.66 4.66 0 00-3.61-2 7.49 7.49 0 00-5.1 1.69c-1.27 1.18-.68 5.08-.32 6.57 0 .08 0 .15.09.15-1.83 1.79-3.33 5-2.91 6.05.11-.15 4.11-1.92 4.49-1.11A5.83 5.83 0 00109 43.2c3.33-.22 3.87-4.37 2.82-6.71l-.31-.43z" fill="#3C517B" fill-rule="nonzero"/><path d="M110.85 30.74c-1.77-.55-3.49.25-4.65.12a12.88 12.88 0 01-.45 2.72c-.1.423-.04.869.17 1.25 1 1.8 3 2.29 4.44 1.09 0 0 .06 0 .06-.08a3.29 3.29 0 00.61-1.21 12.57 12.57 0 00-.18-3.89z" fill="#C58F62" fill-rule="nonzero"/><path d="M146 .73h24.49a.46.46 0 01.45.48v14.14a.46.46 0 01-.45.48h-9.88l.74 4-8-4H146a.46.46 0 01-.45-.48V1.21a.46.46 0 01.45-.48z" fill="#37517E" fill-rule="nonzero"/><path fill="#00B9FF" d="M162.1 7.68h-11.88l.67-1.58h11.88zm4.18 3.1h-16.06l.67-1.58h16.06z"/><path d="M132.91 5h-24.49a.47.47 0 00-.45.48v16.3a.48.48 0 00.45.49h9.89l-.75 4 8-4h7.36a.47.47 0 00.45-.49V5.48a.47.47 0 00-.46-.48z" fill="#00B9FF" fill-rule="nonzero"/><path d="M119.69 14.9c0-.94.66-1.55 1.29-2.21a2.74 2.74 0 001-1.83 1.24 1.24 0 00-1.34-1.31 2 2 0 00-1.57.88l-1.25-1.16a3.67 3.67 0 012.95-1.37 2.84 2.84 0 013.09 2.87 3.57 3.57 0 01-1.31 2.61c-.62.58-1.26 1-1.29 1.61v.66h-1.48l-.09-.75zm-.35 3.1a1.13 1.13 0 112.26-.04 1.13 1.13 0 01-2.26.04z" fill="#DBF4FE" fill-rule="nonzero"/><path d="M45.93 60.66c-1.47.22-3-.06-4.51.06-1.31.11-2.54.52-3.84.64-.65.06-1.31 0-2 .15a4.58 4.58 0 00-2 .79c-.37.28-.66.65-.54 1s.5.56.93.71c.43.15.88.22 1.3.38.42.16.89.45 1.35.66a8.57 8.57 0 003.61.57c1.25 0 2.51-.14 3.75-.07 2.38.14 4.76 1 7.07.54.76-.15 1.47-.43 2.25-.56 1.67-.26 3.64.23 5-.5.77-.41 1.14-1.12 1.94-1.51a7.45 7.45 0 00.86-.38.9.9 0 00-.21-1.63c-.88-.38-2 0-3 0-1.28 0-2.4-.61-3.65-.8a17.78 17.78 0 00-2.31-.08 29.65 29.65 0 01-3-.37 11 11 0 00-3 .4z" fill="#D3D5D8" fill-rule="nonzero"/><path d="M38.51 65.55a14.6 14.6 0 001.87.1c.52 0 1 0 1.55-.06-.47-.5-.89-1-1.16-1.3a21.43 21.43 0 01-2.26 1.26z"/><path d="M54.94 56.63a5.4 5.4 0 00-1.42-.48c-.44-.09-.8.47-.4.63a5.86 5.86 0 012.77 2.15 5.38 5.38 0 01-.5 6.55 7.55 7.55 0 002.78-.31l.12-.47c.71-3.26-.29-6.57-3.35-8.07zm-12.77.04l-.1.15.29-.13z" fill="#C48F65" fill-rule="nonzero"/><path d="M40.77 64.29c.27.32.69.8 1.16 1.3-.5-.59-.93-1.05-1.16-1.3zm-.71-.88zm.02.03c.109.176.236.34.38.49l.31.36a.81.81 0 00-.13-.15 4.52 4.52 0 01-.56-.7z" fill="#ECAD84" fill-rule="nonzero"/><path d="M40.09 58.59a4.69 4.69 0 00-.72 2.36l.09-.13a5.75 5.75 0 01.63-2.23z"/><path d="M40.46 63.93a2.93 2.93 0 01-.38-.49 3.66 3.66 0 01-.28-.56 2.3 2.3 0 01-.12-.34 4.57 4.57 0 01-.2-1.69l-.09.13c-.17.22-.33.44-.48.62-.74.91-1.74 2.14-2.71 3.21-.38.42-.77.83-1.13 1.16l1.45.39a14.87 14.87 0 002-.78 21.43 21.43 0 002.26-1.26l-.32-.39z" fill="#AA7959" fill-rule="nonzero"/><path d="M51.69 63.05a22.47 22.47 0 01-1.62-2.26c-1-1.58-2.19-3.39-2.43-3.64A4.66 4.66 0 0045.7 56a2.79 2.79 0 01-.89.46 6.9 6.9 0 01-2.44.23l-.29.13.1-.15h-.28v-.12a5.1 5.1 0 00-.73.59 5.68 5.68 0 00-1.06 1.49 5.75 5.75 0 00-.63 2.23 4.37 4.37 0 00.26 1.91c.79.078 1.55.35 2.21.79a7.45 7.45 0 012 2h.24c2.38.13 4.75 1 7.06.53.77-.15 1.48-.43 2.25-.55a6.84 6.84 0 01.9-.08c-.93-.73-1.86-1.53-2.71-2.41z" fill="#C48F65" fill-rule="nonzero"/><path d="M46 55.37h-.18a5.13 5.13 0 01-.65-.16 4.32 4.32 0 01-3.15.46.16.16 0 00-.2.18v.8h.47a6.9 6.9 0 002.44-.23 2.79 2.79 0 00.89-.46 1.13 1.13 0 00.18-.12.49.49 0 00.14-.45l.06-.02z" fill="#00A4DF" fill-rule="nonzero"/><path fill="#C48F65" fill-rule="nonzero" d="M42.37 56.69h-.01z"/><path d="M41.93 63.52c-.4.28-.78.54-1.16.77.22.25.66.75 1.18 1.3h2a7.45 7.45 0 00-2.02-2.07zm-2.21-.79a.67.67 0 00.06.12c.075.195.169.383.28.56.163.251.35.486.56.7a.81.81 0 01.13.15c.38-.23.76-.49 1.16-.77a4.84 4.84 0 00-2.19-.76z" fill="#ECAD84" fill-rule="nonzero"/><path d="M42.84 51.83h.24a.93.93 0 00-.24 0z" fill="#C48F65" fill-rule="nonzero"/><path d="M45.93 54.93l.08.44c.31 0 .61.09.92.11.179.02.36 0 .53-.06a.86.86 0 00.42-.42l-2-.14s.05.04.05.07zm.88-2.84l1.33.09a5.87 5.87 0 00-.22-1 2.33 2.33 0 00-.45-.87 1.44 1.44 0 00-1.26-.38 2.47 2.47 0 01.6 2.16zM45 54.8l-.24.18c.14.09.291.16.45.21a5 5 0 00.53-.34L45 54.8z" fill="#84573C" fill-rule="nonzero"/><path d="M46 55.37l-.08-.44s0-.05-.05-.07h-.17a5 5 0 01-.53.34c.213.067.43.12.65.16l.18.01zm-1.59-.6c.08.066.163.126.25.18h.07l.24-.18h-.56zm-.06-2.84l2.46.16a2.47 2.47 0 00-.6-2.17c-1 .16-1.52 1.08-1.86 2.01zM39 50.34a.53.53 0 00-.17-.73.53.53 0 00-.56.89h.33a.54.54 0 00.4-.16z" fill="#84573C" fill-rule="nonzero"/><path d="M45.72 54.84h.16a.12.12 0 00-.16 0z" fill="#A7E2F9" fill-rule="nonzero"/><path d="M51.92 53.41c0-.44.37-.74.5-1.14.14-.44.14-.91 0-1.35-.36-1.16-1.87-1.34-2.87-.91-.77.33-1 1.41-1.09 2.15h-.35l-1.33-.09-2.46-.16-1.27-.09h-.24a1.58 1.58 0 00-.93.39c-.69.57-1.77 1.67-3.29 1.21a3.66 3.66 0 01-.6-.25c-.52-.29-.62-1.06-.61-1.72l-1.17-.07a2 2 0 00-2.1-2.13 2 2 0 00-1.89 1.52 2.21 2.21 0 00.09 1c.14.252.219.532.23.82 0 .44-.43.71-.61 1.1a2.2 2.2 0 00-.16 1.34c.24 1.19 1.72 1.52 2.76 1.19.81-.25 1.18-1.3 1.31-2l3.44.24s.11-.06.26-.09a7.58 7.58 0 011.56-.16c.13 0 1.29.33 2.09.51l1.19.08h1.3a.12.12 0 01.16 0l2 .14h.53a2 2 0 002.3 1.89 2 2 0 001.72-1.71 2.18 2.18 0 00-.19-1 1.93 1.93 0 01-.28-.71z" fill="#A7E2F9" fill-rule="nonzero"/><path d="M37.52 50.39v.05-.05zm1.1.18h-.25a.53.53 0 00.25 0z" fill="#C48F65" fill-rule="nonzero"/><path d="M45.35 49.25a2.74 2.74 0 00-2.2-.12 6.73 6.73 0 01-2.12.39h-.28c-.74 0-1.59-.52-2.34-.31a1.43 1.43 0 00-.88 1.19v.05c0 .08-.05.31-.08.63v.39c0 .66.09 1.43.61 1.72.192.101.393.185.6.25 1.52.46 2.6-.64 3.29-1.21a1.58 1.58 0 01.93-.39.93.93 0 01.24 0l1.27.09c.34-.94.86-1.85 1.85-2a3 3 0 00-.89-.68zM39 50.34a.54.54 0 01-.4.23.53.53 0 01-.25 0h-.08a.53.53 0 01.56-.89.53.53 0 01.17.66zM44.66 55a2.27 2.27 0 01-.25-.18l-1.19-.08c-.8-.18-2-.47-2.09-.51a7.58 7.58 0 00-1.56.16c-.15 0-.25.06-.26.09.485.29.997.531 1.53.72a4.3 4.3 0 002.07.5 3.43 3.43 0 001.81-.67l-.06-.03zM41 69.54a.58.58 0 01-.52.28h-2.3a.75.75 0 01.76-.73h.35" fill="#C48F65" fill-rule="nonzero"/><path d="M39.44 69.78A54.79 54.79 0 0041.68 64a33.84 33.84 0 00.81-5.62l2.57 1 2 .79s.13 1-2.13 4.6a19.43 19.43 0 01-4 4.82" fill="#C48F65" fill-rule="nonzero"/><path d="M179.24 65.48a123.132 123.132 0 00-4-11.08c-.74-1.8-1.53-3.58-2.35-5.33-.82-1.75-1.72-3.52-2.6-5a3.84 3.84 0 011.4-5.24c1.83-1.06 3.56.18 4.62 2 .14.25 1.08 1.8 1.3 1.3.65 2.13.78 2.93 1.23 5 .45 2.07.83 4 1.17 6 .667 4 1.147 8 1.44 12" fill="#845739" fill-rule="nonzero"/><circle fill="#816343" fill-rule="nonzero" transform="rotate(-43.57 180.365 68.373)" cx="180.365" cy="68.373" r="1.33"/><path fill="#816343" fill-rule="nonzero" d="M157.19 96.8l-2.69-.31.46-6.37 3.29.38z"/><path d="M173.88 60.9l-1.64 29.74a2.44 2.44 0 01-4.85.18v-.18l-3.79-29.33A5.17 5.17 0 11173.84 60a6 6 0 01.04.9z" fill="#6F8691" fill-rule="nonzero"/><path d="M166.89 61.74L159 91.2v.17a2.43 2.43 0 01-4.78-.83l2.57-30.78a5.18 5.18 0 1110.32.86 4.38 4.38 0 01-.15.88l-.07.24z" fill="#6F8691" fill-rule="nonzero"/><path fill="#253655" fill-rule="nonzero" d="M156.81 100.22l.85-4.43-3.19.06-.47 4.37"/><path fill="#816343" fill-rule="nonzero" d="M170.82 96.99l-2.5-.81v-6.39h3.31z"/><path fill="#253655" fill-rule="nonzero" d="M170.94 100.23l.52-4.84h-3.5l.33 4.69m-1.57.15a2.71 2.71 0 015.41 0m-20.4.1a2.47 2.47 0 014.94-.09"/><rect fill="#829CA9" fill-rule="nonzero" transform="rotate(2.02 156.492 91.826)" x="153.667" y="90.311" width="5.65" height="3.03" rx=".55"/><rect fill="#829CA9" fill-rule="nonzero" x="167.15" y="89.79" width="5.65" height="3.03" rx=".55"/><path fill="#00B9FF" fill-rule="nonzero" d="M165.05 64.65h1.57zm-8.56-23.52a6.32 6.32 0 016.21-5.82l7 .27a9.59 9.59 0 017.06 4.5 19.7 19.7 0 012.41 7.19l-4.75 1.82-.31 14.91s-5.12.57-8.23.68a55.75 55.75 0 01-8.14-.75l-1.26-.41.28-14.28s-.31-7.41-.27-8.11z"/><path d="M145.79 23v.07a25 25 0 002 4.92 18.64 18.64 0 002.94 4.12 17.11 17.11 0 003.79 3 17.75 17.75 0 002.09 1 8.45 8.45 0 001.93.57 3.933 3.933 0 11-.33 7.86 3.84 3.84 0 01-1.48-.36l-.53-.24a19.55 19.55 0 01-5.6-4 22.7 22.7 0 01-3.9-4.94 23 23 0 01-2.3-5.72 28.46 28.46 0 01-.84-5.88" fill="#845739" fill-rule="nonzero"/><circle fill="#816343" fill-rule="nonzero" transform="rotate(-2.22 144.118 19.74)" cx="144.118" cy="19.74" r="1.33"/><path d="M151.18 41.26c.52.4 1 .81 1.6 1.17.6.36 1.31.88 2 1.28.752.45 1.534.847 2.34 1.19l.56.24a4.82 4.82 0 006.31-2.55c1-2.45-1.34-7.28-1.34-7.28a31 31 0 01-7.22-1.1l-4.25 7.05z" fill="#00B9FF" fill-rule="nonzero"/><rect fill="#816343" fill-rule="nonzero" transform="rotate(-170.819 166.745 27.76)" x="163.375" y="23.016" width="6.739" height="9.487" rx="3.36"/><path d="M163.67 27.68c-1.47-1.86-1.25-5.29.28-5.11 1 .16.8 1.1 1.35 1.18.55.08.85-1.35 2.69-1.06 1.38.22 1.45 1.6 2 1.69.55.09.71-.85 1.65-.7 1.52.3.57 3.26-.16 4.64-.59 1-1.31 3-1.51 2.78-.2-.22.34-2.29-.37-3s-3.51.72-5.93-.4m4.16.3c-1.39.35-2.2-1.12-3.1-.64" fill="#303E5E" fill-rule="nonzero"/><circle fill="#816343" fill-rule="nonzero" cx="170.15" cy="30.36" r="1"/><path fill="#FFF" fill-rule="nonzero" d="M168.8 42.38l.71 1.19-1.23 1.18 2.13-.01.2-.47h-1.17l.71-.71-.42-.71h1.94l-1.69 4.05.58-.01 1.89-4.52z"/><path d="M169.3 35.6s-3.33 4.26-6.65-.29" fill="#816343" fill-rule="nonzero"/><path d="M252.72 14c-1.364.14-2.74.09-4.09-.15a5.42 5.42 0 01-1.6-.55c-.38-.25-.59-.41-.68-.76a2.83 2.83 0 01.2-1.54 9.55 9.55 0 011-1.87 27.29 27.29 0 012.88-3.57l-1.13-1.25a28.7 28.7 0 00-3.67 3.34 12.1 12.1 0 00-1.58 2.14 5.86 5.86 0 00-.82 3.06 4.57 4.57 0 001.64 3.24 8.68 8.68 0 002.66 1.51 18.49 18.49 0 005.33 1.06l-.14-4.66z" fill="#485CC7" fill-rule="nonzero"/><ellipse fill="#5D7079" fill-rule="nonzero" transform="rotate(-70.656 247.31 4.686)" cx="247.311" cy="4.686" rx="2.411" ry="1.953"/><path d="M253.32 4.78L249 1.49c-.42-.31-1 0-1.41.79l-.94 2a1.35 1.35 0 00.83 1.89l4.71 1.41 1.13-2.8z" fill="#6F8691" fill-rule="nonzero"/><ellipse fill="#6F8691" fill-rule="nonzero" transform="rotate(-66.4 252.579 6.042)" cx="252.579" cy="6.042" rx="1.5" ry="1.19"/><ellipse fill="#5D7079" fill-rule="nonzero" transform="rotate(-66.501 252.89 4.97)" cx="252.89" cy="4.97" rx="1.043" ry="1"/><ellipse fill="#6F8691" fill-rule="nonzero" transform="rotate(-70.77 247.928 3.596)" cx="247.928" cy="3.596" rx="2.38" ry="1.93"/><ellipse fill="#5D7079" fill-rule="nonzero" transform="rotate(-70.77 244.72 3.299)" cx="244.721" cy="3.299" rx="2.42" ry="1.96"/><path d="M250.51 4.69l-4.28-3.29c-.43-.31-1 0-1.41.79l-.95 2a1.36 1.36 0 00.83 1.89l4.71 1.41 1.1-2.8z" fill="#829CA9" fill-rule="nonzero"/><ellipse fill="#6F8691" fill-rule="nonzero" transform="rotate(-66.4 249.757 5.95)" cx="249.757" cy="5.95" rx="1.5" ry="1.19"/><ellipse fill="#5D7079" fill-rule="nonzero" transform="rotate(-66.4 249.798 6.017)" cx="249.798" cy="6.017" rx="1.04" ry="1"/><ellipse fill="#829CA9" fill-rule="nonzero" transform="rotate(-70.77 245.118 3.5)" cx="245.118" cy="3.5" rx="2.38" ry="1.93"/><path d="M252.74 13.67a41.05 41.05 0 01-4.75-.47 20.17 20.17 0 01-4.44-1.12 5 5 0 01-1.48-.87c-.08-.07-.09-.11-.15-.16s-.08-.08-.07-.13c.01-.05 0 0 0-.07v-.12c0-.04 0-.19.07-.3a5 5 0 011.2-1.58c.27-.26.58-.51.88-.77l1-.72-1-1.73-1.19.6c-.39.23-.79.45-1.18.71a7.76 7.76 0 00-2.21 2.13 3.43 3.43 0 00-.41.86l-.15.5a5.07 5.07 0 00-.05.56 3.87 3.87 0 00.14 1.12c.107.35.255.685.44 1a7.64 7.64 0 002.43 2.29 24.35 24.35 0 005.09 2.29 45.86 45.86 0 005.21 1.43l.62-5.45z" fill="#5A80F9" fill-rule="nonzero"/><circle fill="#FAD6C7" fill-rule="nonzero" cx="245.8" cy="5.32" r="1.21"/><path d="M249.1 8.26l1.57-3.24c.54-.62 1.42-.56 2.9.07a2.84 2.84 0 011.62 3.69l-1 2.38-3.85-.41L249 9.6l.1-1.34z" fill="#FCD3B9" fill-rule="nonzero"/><path d="M249.3 7.77c.29.18.49.56.69 1.41l-1.08-.1h-.09" fill="#FFB619" fill-rule="nonzero"/><circle fill="#FCD3B9" fill-rule="nonzero" cx="251.43" cy="7.74" r="1"/><path d="M249.31 7.81l-.13.77a2.8 2.8 0 00.33.47c.79-.13 1.94-.66 1.95-1.48 0-.33-.7 0-.8-.06-.56-.48 1.15-1.56 1-2.16-.06-.25-.67-.7-1-.28a2.62 2.62 0 014.08-.06 4.51 4.51 0 01.15-.58 1.55 1.55 0 111.13 2 2.64 2.64 0 01-.18 1.75l-1.2 2.82s-.74 2.66-4 1.45a3.05 3.05 0 01-1.57-4.16l.24-.48z" fill="#FFB619" fill-rule="nonzero"/><ellipse fill="#E2E6E8" fill-rule="nonzero" cx="247.41" cy="73.9" rx="18.72" ry="1.96"/><path fill="#FAD6C7" fill-rule="nonzero" d="M243.02 72.52l1.87.11.59-8.28-2.75-1.77zm19.32-1.58l1.88-.94-2.18-3.82-2.76.47z"/><path d="M241.69 25.44c-.26 3.56-.4 7-.5 10.45-.1 3.45-.16 6.92-.16 10.38 0 6.907.197 13.807.59 20.7h3.7a340 340 0 011.45-20.37c.33-3.39.73-6.77 1.16-10.13.43-3.36.92-6.76 1.48-10l-7.72-1.03z" fill="#6F8691" fill-rule="nonzero"/><path d="M247 26.52c.15 2 .37 3.78.64 5.63s.58 3.65.93 5.45c.7 3.61 1.59 7.18 2.63 10.7a97.37 97.37 0 003.69 10.36 86.54 86.54 0 004.86 9.85l3.28-1.72a85.15 85.15 0 01-3.71-9.76 90 90 0 01-2.54-10.11c-.67-3.41-1.19-6.85-1.52-10.31-.17-1.72-.3-3.45-.38-5.17-.08-1.72-.13-3.49-.1-5l-7.78.08z" fill="#6F8691" fill-rule="nonzero"/><rect fill="#829CA9" fill-rule="nonzero" transform="rotate(-180 243.845 66.835)" x="241.55" y="65.57" width="4.59" height="2.53" rx=".4"/><rect fill="#829CA9" fill-rule="nonzero" transform="rotate(156.64 260.687 67.331)" x="258.392" y="66.066" width="4.59" height="2.53" rx=".4"/><path d="M239.42 70.8c.39-.14 2.45-.17 2.74-.26 0-.34.07-.56.07-.56l2.74.15c.65 3.38.29 3.6.29 3.6a32.13 32.13 0 01-3.37-.07 22.9 22.9 0 01-3-1.4s.11-1.26.53-1.46zm19.84.9s1.95-1 2.19-1.23l-.16-.54 2.57-1 1.46 2.75s-4.17 1.35-5.07 1.5l-2.15-.11s-.1-1.39 1.16-1.37z" fill="#253655" fill-rule="nonzero"/><path d="M248.61 33.42l-4.53-1c-2.6-.59-3.5.23-3.24-.9l2.06-14.58c.53-2.32 1.91-4.16 5-3.69 1.05.16 2.1.33 3.16.4l2.64.18c2.6.59 3.71 3.27 3.12 5.86l-1.31 11.58c-.61 2.56-4.3 2.73-6.9 2.15z" fill="#5A80F9" fill-rule="nonzero"/></g></g></svg>